PathFileType	4	(X/Y/Z)	Patient4_TMGait_0pt4_02_right_17.trc.trc
DataRate	CameraRate	NumFrames	NumMarkers	Units	OrigDataRate	OrigDataStartFrame	OrigNumFrames
70.707070707071	70.707070707071	6	33	mm	70.707070707071	124	       141
Frame#	Time	Sacral			L.Shoulder			Chest			R.Shoulder			Neck			R.ASIS			L.ASIS			R.Thigh.Superior			R.Thigh.Lateral			R.Thigh.Inferior			R.Patella			L.Thigh.Superior			L.Thigh.Lateral			L.Thigh.Inferior			L.Patella			L.Shank.Superior			L.Shank.Lateral			L.Shank.Inferior			R.Shank.Superior			R.Shank.Lateral			R.Shank.Inferior			R.Heel			R.Midfoot.Superior			R.Midfoot.Lateral			R.Toe			L.Heel			L.Midfoot.Lateral			L.Midfoot.Superior			L.Toe			L.Elbow			L.Wrist			R.Elbow			R.Wrist			
		X1	Y1	Z1	X2	Y2	Z2	X3	Y3	Z3	X4	Y4	Z4	X5	Y5	Z5	X6	Y6	Z6	X7	Y7	Z7	X8	Y8	Z8	X9	Y9	Z9	X10	Y10	Z10	X11	Y11	Z11	X12	Y12	Z12	X13	Y13	Z13	X14	Y14	Z14	X15	Y15	Z15	X16	Y16	Z16	X17	Y17	Z17	X18	Y18	Z18	X19	Y19	Z19	X20	Y20	Z20	X21	Y21	Z21	X22	Y22	Z22	X23	Y23	Z23	X24	Y24	Z24	X25	Y25	Z25	X26	Y26	Z26	X27	Y27	Z27	X28	Y28	Z28	X29	Y29	Z29	X30	Y30	Z30	X31	Y31	Z31	X32	Y32	Z32	X33	Y33	Z33	

124	23.749571428571	858.622627177927	998.939762329414	422.429268440335	1046.649773670756	1410.131276902803	216.311244380615	1128.941946232608	1365.536988705345	395.904890884329	1021.377969484796	1453.520971311495	549.425108413952	1015.671091720015	1488.862075565071	357.879391042303	1081.552154729662	942.582508537734	555.576688391645	1085.543124116675	964.681721523540	279.286985359147	1150.281763891283	753.023193982150	537.992585646037	1087.924752152646	637.468263299154	608.445386732353	1178.075193995793	591.769841041696	535.711833014740	1199.972841403471	508.209404036652	552.615560350058	1091.577397391515	738.316633252949	303.062657493468	975.515291989520	640.594348335375	241.232914454993	1041.284523453606	549.224141601644	300.736641496173	1028.108876538729	483.833977420086	308.896021039134	997.067767761786	416.677552337906	302.087671587594	896.019417458811	307.875068999800	259.615511846292	948.550082045482	193.631678802646	327.512583195021	1176.123035947840	419.056299725026	566.191912680113	1109.431857007410	315.943397219651	635.329452837858	1166.136516208589	219.316128253212	586.961647629358	1050.785911697320	47.374942594958	572.050013253366	1222.299075768048	101.433983883261	602.804506981098	1136.618923676222	39.467353349023	643.551374969623	1343.272612424907	50.551972261861	626.634887085339	820.418538550937	38.741556674626	377.916415563418	893.658533695372	34.308291340010	296.625268383032	976.415277575674	97.129347811143	321.592625235163	1104.957091516050	47.691941099882	295.500185791696	1097.466843414512	1055.176495908206	118.531889978162	1256.007433113648	845.882988272732	134.281608838941	907.290771687590	1141.380299452400	694.856643858324	976.828283073574	890.360439961844	727.964720151028	
125	23.763714285714	859.862594448216	998.360195819271	424.350262152681	1046.570968315754	1410.449513253543	220.159899136476	1129.319566877110	1365.394299028195	399.470455697456	1021.684554680424	1452.490813092803	553.451946049626	1015.586442584831	1488.640527377472	362.158025883062	1082.930396352498	941.605314787298	557.323914941916	1086.916292842332	964.325991388447	281.254678450201	1149.470928074492	750.008923787418	538.910482826042	1084.930466266789	635.410388813446	608.434249335154	1174.447039962920	589.175427547189	535.234757529388	1195.074536836115	505.072506603901	551.341960696542	1092.132928077843	737.338533011843	304.323088362289	975.168531631504	640.398885881924	242.675293521823	1040.281658520203	548.409100000252	302.050106602517	1026.686592603334	482.777362844436	310.184397721363	994.971732978596	416.105991396646	303.137863907583	892.821965022886	308.360753888348	260.304784095056	944.065507235278	193.340265679757	327.866999048300	1170.423259091596	415.825265461243	565.247841100131	1102.657595271146	313.351323427070	634.403856689368	1157.730139423443	216.109186675194	585.288487199694	1040.256843700835	45.273539495967	571.032711164145	1211.862124553649	98.911491320418	600.550208527158	1126.228309947850	37.884737689923	642.411919858918	1333.029068568000	47.994259245202	624.549114904366	814.751691984649	38.874291118115	377.847974323435	888.052209065804	34.376054261108	296.690345802031	970.948548784285	96.971490118240	321.719854629662	1099.423563331869	47.174469550767	295.544767030490	1095.305090783592	1055.304956333244	121.557469787411	1252.228832242453	844.692093869491	135.762444853349	911.199874927037	1138.673694673840	698.477099067951	988.836938075139	889.801537172487	729.737272584233	
126	23.777857142857	860.996091529285	998.074397174398	426.275578256060	1046.841163427885	1411.036973882974	224.115264692087	1129.904649150187	1365.339253363532	403.159321146610	1022.234875874159	1451.621669656023	557.563509106419	1015.748147688201	1488.638668845637	366.545834464991	1084.108517181716	940.988239812576	559.251438727745	1088.154440473141	963.971054939671	283.383359814060	1148.644186424498	747.707623237217	539.972087677051	1082.415069631869	634.068338151788	608.846807683204	1171.192150806115	587.350495051248	535.059750343284	1190.684578743995	502.744436138899	550.617610213074	1092.855765927088	736.546913186264	305.909989151945	975.195826796001	640.185661766602	244.319924468462	1039.804938616192	547.651877742488	303.565903699291	1025.855424898409	481.680182665528	311.640814554566	993.352478724839	415.472902096662	304.353192295406	889.951065191539	308.936120762663	261.170605578834	939.782682162631	193.057215935111	328.302904345630	1165.505799321555	413.462163479041	564.825140724231	1097.128324228393	311.456011469087	634.076564259619	1150.775062171674	213.840564725904	584.168870476598	1031.732060709493	43.766270474151	570.418311825977	1203.243108289157	97.467279879880	598.981990974786	1117.809779947458	36.996362783657	641.712487704119	1324.662550601187	46.779807241095	623.104304280887	809.098851026991	39.107427085778	377.777066642333	882.480824517828	34.488405294202	296.776248772093	965.550300280687	96.847444669002	321.847734735869	1093.951481760591	46.560268328562	295.575788148173	1092.727546776107	1055.656327549044	124.616464706579	1247.809209848061	843.568599859511	137.094236034346	915.567082781960	1136.138540746167	702.275682804264	1001.292705984578	889.741319110598	731.661881504234	
127	23.792000000000	861.999075792953	998.071150380960	428.224124837662	1047.467849994776	1411.892487157572	228.134814516644	1130.664430387755	1365.367878239264	406.943477743309	1022.971700611513	1450.920027198216	561.709089310407	1016.131799401607	1488.849659791081	370.985320715683	1085.051443013153	940.748225165153	561.401382845428	1089.224337629328	963.619933134593	285.686731606548	1147.937327626923	746.214235095277	541.243417209520	1080.577240032286	633.434614609398	609.736253947437	1168.539178605862	586.296213395298	535.293932272860	1186.984605761967	501.184639941879	550.556547800439	1093.723620853030	735.976212892119	307.830398114027	975.573072571593	639.963320753373	246.177897214330	1039.853722853367	546.963596684588	305.270699629998	1025.630724968733	480.548084154814	313.224672741577	992.198071167889	414.789740730098	305.713121060248	887.394945301384	309.622010138167	262.215403109337	935.703214945999	192.807907870770	328.812607940265	1161.455213960707	411.890266944171	564.945621519317	1092.778915594072	310.224953962458	634.328090435002	1145.113961090931	212.397420154964	583.596789245646	1024.836711629142	42.830327492230	570.146028659169	1196.167132203329	96.863985899065	598.072472924507	1110.983256890499	36.647759397153	641.396002399320	1317.835078551063	46.494551094333	622.270669878003	803.467759893804	39.494186446956	377.707526046706	876.948265981514	34.667491921370	296.880836691639	960.234255734291	96.769225760734	321.969134902834	1088.541997401835	45.848571964396	295.590209539625	1089.736408959688	1056.252132678382	127.676559875098	1242.743834745331	842.541862085248	138.305840369244	920.303991399915	1133.819753597701	706.232611811453	1014.149746696386	890.266469992108	733.715356784150	
128	23.806142857143	862.872721805942	998.299996893522	430.242262540069	1048.412967570279	1412.980553623533	232.182754258466	1131.550074175311	1365.466974596325	410.795392848058	1023.823124099318	1450.369753705706	565.849998957639	1016.690785001268	1489.241244798970	375.428459277952	1085.767266795426	940.862756971886	563.813843088514	1090.118969479380	963.274412663394	288.181071768799	1147.465087485582	745.507980501164	542.802519402863	1079.479926382559	633.400244850991	611.103310854305	1166.610346498607	585.899437166610	536.020391852469	1184.038662804246	500.258927375394	551.182655736327	1094.717959442619	735.638506173830	310.071167387477	976.280008502283	639.738838228404	248.250011255386	1040.427455018213	546.351114124316	307.142030635201	1026.026406205610	479.384102944379	314.881103887783	991.496275030866	414.071006961310	307.185455531866	885.145192567521	310.441830624690	263.430031757358	931.829141958284	192.623523718649	329.380234362230	1158.237952120016	410.954914211080	565.565604366759	1089.419117062020	309.552513949294	635.065830733867	1140.486640257477	211.601725011467	583.503043084606	1019.120627289970	42.383168983794	570.133445312773	1190.260227496493	96.842813488945	597.720346013113	1105.300431180767	36.672825041189	641.377256741122	1312.131081062023	46.752113318777	621.952244946086	797.870216290572	40.103422631152	377.642168319636	871.457005571040	34.944861526878	296.998668526528	955.014938897878	96.749220086287	322.074258156356	1083.188623613219	45.045545173760	295.585121505100	1086.344260496727	1057.088795756011	130.706058221781	1237.042557613020	841.620795352288	139.426554340676	925.304277304053	1131.740571017924	710.342344366069	1027.364033148693	891.457555171215	735.871683391241	
129	23.820285714286	863.640386929502	998.680550998817	432.397654471551	1049.593159334731	1414.235501705176	236.234222298770	1132.501046560971	1365.620413273543	414.690898022227	1024.711382248858	1449.939339207725	569.964410941557	1017.362211958668	1489.762862620418	379.842873791857	1086.304493728027	941.274446371911	566.518467805454	1090.859344308586	962.941264858683	290.883588926801	1147.297263376973	745.460876237509	544.730561379821	1079.030717345432	633.781047471630	612.895309122691	1165.400993223256	585.969020071617	537.284416889558	1181.798278717688	499.779890507791	552.428267265893	1095.826521552723	735.520590666604	312.604012601319	977.314778282941	639.515111614879	250.526300776249	1041.540323147278	545.817609596478	309.155458187886	1027.067554461531	478.188498247426	316.551924118627	991.249675428853	413.331845803555	308.732391421243	883.210918338799	311.422588596822	264.795455616183	928.170880641582	192.541065456492	329.983756008480	1155.724053620813	410.461717571499	566.592442400586	1086.781967647115	309.287665604344	636.150534455759	1136.586772011202	211.246989616696	583.776939894703	1014.134920425552	42.307308001743	570.290870082642	1185.122243108413	97.160535000719	597.781421851230	1100.318286642382	36.917217100976	641.560243052905	1307.130828807212	47.233126608326	622.017696489890	792.323420002143	41.021104146514	377.581244067891	866.008703410881	35.363933294739	297.121507082848	949.909188793701	96.801055103176	322.150035466896	1077.875880867291	44.165132609435	295.558493693380	1082.569924691558	1058.137537222541	133.680270674515	1230.725397310765	840.793911452261	140.482648204224	930.459604451502	1129.903927215881	714.615057363555	1040.893650596543	893.386851373693	738.103605976875	
